<mxfile host="app.diagrams.net" modified="2020-12-08T17:00:24.727Z" agent="5.0 (Windows NT 10.0; Win64; x64) AppleWebKit/537.36 (KHTML, like Gecko) Chrome/86.0.4240.198 Safari/537.36" etag="gkWVsG44kiawtoexAs6N" version="13.11.0" type="github">
  <diagram id="kgpKYQtTHZ0yAKxKKP6v" name="Page-1">
    <mxGraphModel dx="1038" dy="580" grid="1" gridSize="10" guides="1" tooltips="1" connect="1" arrows="1" fold="1" page="1" pageScale="1" pageWidth="850" pageHeight="1100" math="0" shadow="0">
      <root>
        <mxCell id="0" />
        <mxCell id="1" parent="0" />
        <mxCell id="RO-l3SHUVcZOq0i67Axm-1" value="" style="shape=umlLifeline;participant=umlActor;perimeter=lifelinePerimeter;whiteSpace=wrap;html=1;container=1;collapsible=0;recursiveResize=0;verticalAlign=top;spacingTop=36;outlineConnect=0;" vertex="1" parent="1">
          <mxGeometry x="140" y="40" width="20" height="480" as="geometry" />
        </mxCell>
        <mxCell id="RO-l3SHUVcZOq0i67Axm-7" value="" style="html=1;points=[];perimeter=orthogonalPerimeter;" vertex="1" parent="RO-l3SHUVcZOq0i67Axm-1">
          <mxGeometry x="5" y="80" width="10" height="360" as="geometry" />
        </mxCell>
        <mxCell id="RO-l3SHUVcZOq0i67Axm-2" value=":GUISystem" style="shape=umlLifeline;perimeter=lifelinePerimeter;whiteSpace=wrap;html=1;container=1;collapsible=0;recursiveResize=0;outlineConnect=0;" vertex="1" parent="1">
          <mxGeometry x="250" y="40" width="100" height="490" as="geometry" />
        </mxCell>
        <mxCell id="RO-l3SHUVcZOq0i67Axm-8" value="" style="html=1;points=[];perimeter=orthogonalPerimeter;" vertex="1" parent="RO-l3SHUVcZOq0i67Axm-2">
          <mxGeometry x="45" y="100" width="10" height="100" as="geometry" />
        </mxCell>
        <mxCell id="RO-l3SHUVcZOq0i67Axm-24" value="Trả về kết quả kiểm tra" style="html=1;verticalAlign=bottom;endArrow=open;dashed=1;endSize=8;" edge="1" parent="RO-l3SHUVcZOq0i67Axm-2" source="RO-l3SHUVcZOq0i67Axm-3">
          <mxGeometry relative="1" as="geometry">
            <mxPoint x="140" y="260" as="sourcePoint" />
            <mxPoint x="60" y="260" as="targetPoint" />
          </mxGeometry>
        </mxCell>
        <mxCell id="RO-l3SHUVcZOq0i67Axm-25" value="" style="html=1;points=[];perimeter=orthogonalPerimeter;" vertex="1" parent="RO-l3SHUVcZOq0i67Axm-2">
          <mxGeometry x="45" y="240" width="10" height="60" as="geometry" />
        </mxCell>
        <mxCell id="RO-l3SHUVcZOq0i67Axm-27" value="" style="html=1;points=[];perimeter=orthogonalPerimeter;" vertex="1" parent="RO-l3SHUVcZOq0i67Axm-2">
          <mxGeometry x="45" y="350" width="10" height="50" as="geometry" />
        </mxCell>
        <mxCell id="RO-l3SHUVcZOq0i67Axm-28" value="Trả về kết quả kiểm tra" style="html=1;verticalAlign=bottom;endArrow=open;dashed=1;endSize=8;" edge="1" parent="RO-l3SHUVcZOq0i67Axm-2" source="RO-l3SHUVcZOq0i67Axm-3">
          <mxGeometry relative="1" as="geometry">
            <mxPoint x="140" y="370" as="sourcePoint" />
            <mxPoint x="60" y="370" as="targetPoint" />
          </mxGeometry>
        </mxCell>
        <mxCell id="RO-l3SHUVcZOq0i67Axm-3" value=":Evalute" style="shape=umlLifeline;perimeter=lifelinePerimeter;whiteSpace=wrap;html=1;container=1;collapsible=0;recursiveResize=0;outlineConnect=0;" vertex="1" parent="1">
          <mxGeometry x="450" y="40" width="100" height="480" as="geometry" />
        </mxCell>
        <mxCell id="RO-l3SHUVcZOq0i67Axm-14" value="" style="html=1;points=[];perimeter=orthogonalPerimeter;" vertex="1" parent="RO-l3SHUVcZOq0i67Axm-3">
          <mxGeometry x="45" y="120" width="10" height="320" as="geometry" />
        </mxCell>
        <mxCell id="RO-l3SHUVcZOq0i67Axm-18" value="Kiểm tra thông tin nhập vào" style="edgeStyle=orthogonalEdgeStyle;html=1;align=left;spacingLeft=2;endArrow=block;rounded=0;entryX=1;entryY=0;" edge="1" parent="RO-l3SHUVcZOq0i67Axm-3">
          <mxGeometry relative="1" as="geometry">
            <mxPoint x="55" y="180" as="sourcePoint" />
            <Array as="points">
              <mxPoint x="80" y="180" />
            </Array>
            <mxPoint x="60" y="200" as="targetPoint" />
          </mxGeometry>
        </mxCell>
        <mxCell id="RO-l3SHUVcZOq0i67Axm-21" value="Lưu phản hồi" style="html=1;verticalAlign=bottom;endArrow=block;" edge="1" parent="RO-l3SHUVcZOq0i67Axm-3" target="RO-l3SHUVcZOq0i67Axm-4">
          <mxGeometry width="80" relative="1" as="geometry">
            <mxPoint x="60" y="240" as="sourcePoint" />
            <mxPoint x="140" y="240" as="targetPoint" />
          </mxGeometry>
        </mxCell>
        <mxCell id="RO-l3SHUVcZOq0i67Axm-23" value="Lưu thành công" style="html=1;verticalAlign=bottom;endArrow=open;dashed=1;endSize=8;" edge="1" parent="RO-l3SHUVcZOq0i67Axm-3" source="RO-l3SHUVcZOq0i67Axm-4">
          <mxGeometry relative="1" as="geometry">
            <mxPoint x="140" y="260" as="sourcePoint" />
            <mxPoint x="60" y="260" as="targetPoint" />
          </mxGeometry>
        </mxCell>
        <mxCell id="RO-l3SHUVcZOq0i67Axm-4" value=":Database&amp;nbsp;" style="shape=umlLifeline;perimeter=lifelinePerimeter;whiteSpace=wrap;html=1;container=1;collapsible=0;recursiveResize=0;outlineConnect=0;" vertex="1" parent="1">
          <mxGeometry x="660" y="40" width="100" height="480" as="geometry" />
        </mxCell>
        <mxCell id="RO-l3SHUVcZOq0i67Axm-19" value="" style="html=1;points=[];perimeter=orthogonalPerimeter;" vertex="1" parent="RO-l3SHUVcZOq0i67Axm-4">
          <mxGeometry x="45" y="200" width="10" height="240" as="geometry" />
        </mxCell>
        <mxCell id="RO-l3SHUVcZOq0i67Axm-5" value="Khách hàng" style="text;align=center;fontStyle=1;verticalAlign=middle;spacingLeft=3;spacingRight=3;strokeColor=none;rotatable=0;points=[[0,0.5],[1,0.5]];portConstraint=eastwest;" vertex="1" parent="1">
          <mxGeometry x="110" y="90" width="80" height="26" as="geometry" />
        </mxCell>
        <mxCell id="RO-l3SHUVcZOq0i67Axm-9" value="Gửi yêu cầu phản hồi" style="html=1;verticalAlign=bottom;endArrow=block;" edge="1" parent="1">
          <mxGeometry width="80" relative="1" as="geometry">
            <mxPoint x="160" y="160" as="sourcePoint" />
            <mxPoint x="290" y="160" as="targetPoint" />
            <Array as="points">
              <mxPoint x="210" y="160" />
            </Array>
          </mxGeometry>
        </mxCell>
        <mxCell id="RO-l3SHUVcZOq0i67Axm-11" value="Hiển thị form phản hồi" style="html=1;verticalAlign=bottom;endArrow=block;" edge="1" parent="1" source="RO-l3SHUVcZOq0i67Axm-2">
          <mxGeometry width="80" relative="1" as="geometry">
            <mxPoint x="190" y="190" as="sourcePoint" />
            <mxPoint x="160" y="180" as="targetPoint" />
            <Array as="points">
              <mxPoint x="200" y="180" />
            </Array>
          </mxGeometry>
        </mxCell>
        <mxCell id="RO-l3SHUVcZOq0i67Axm-12" value="Nhập thông tin phản hồi" style="html=1;verticalAlign=bottom;endArrow=block;" edge="1" parent="1" target="RO-l3SHUVcZOq0i67Axm-2">
          <mxGeometry width="80" relative="1" as="geometry">
            <mxPoint x="160" y="200" as="sourcePoint" />
            <mxPoint x="250" y="210" as="targetPoint" />
            <Array as="points">
              <mxPoint x="200" y="200" />
            </Array>
          </mxGeometry>
        </mxCell>
        <mxCell id="RO-l3SHUVcZOq0i67Axm-13" value="Gửi thông tin phản hồi" style="html=1;verticalAlign=bottom;endArrow=block;" edge="1" parent="1" source="RO-l3SHUVcZOq0i67Axm-2" target="RO-l3SHUVcZOq0i67Axm-3">
          <mxGeometry width="80" relative="1" as="geometry">
            <mxPoint x="310" y="180" as="sourcePoint" />
            <mxPoint x="490" y="180" as="targetPoint" />
            <Array as="points">
              <mxPoint x="360" y="210" />
              <mxPoint x="430" y="210" />
            </Array>
          </mxGeometry>
        </mxCell>
        <mxCell id="RO-l3SHUVcZOq0i67Axm-26" value="Thông báo phản hồi thành công" style="html=1;verticalAlign=bottom;endArrow=open;dashed=1;endSize=8;" edge="1" parent="1" source="RO-l3SHUVcZOq0i67Axm-2">
          <mxGeometry relative="1" as="geometry">
            <mxPoint x="250" y="300" as="sourcePoint" />
            <mxPoint x="160" y="310" as="targetPoint" />
          </mxGeometry>
        </mxCell>
        <mxCell id="RO-l3SHUVcZOq0i67Axm-29" value="Thông báo dữ liệu không đúng , yêu cầu nhập lại" style="html=1;verticalAlign=bottom;endArrow=open;dashed=1;endSize=8;" edge="1" parent="1" source="RO-l3SHUVcZOq0i67Axm-2">
          <mxGeometry x="0.2832" y="30" relative="1" as="geometry">
            <mxPoint x="250" y="420" as="sourcePoint" />
            <mxPoint x="160" y="420" as="targetPoint" />
            <mxPoint x="1" as="offset" />
          </mxGeometry>
        </mxCell>
        <mxCell id="RO-l3SHUVcZOq0i67Axm-30" value="[ if data]" style="text;align=center;fontStyle=1;verticalAlign=middle;spacingLeft=3;spacingRight=3;strokeColor=none;rotatable=0;points=[[0,0.5],[1,0.5]];portConstraint=eastwest;" vertex="1" parent="1">
          <mxGeometry x="40" y="280" width="80" height="26" as="geometry" />
        </mxCell>
        <mxCell id="RO-l3SHUVcZOq0i67Axm-31" value="[ else ]" style="text;align=center;fontStyle=1;verticalAlign=middle;spacingLeft=3;spacingRight=3;strokeColor=none;rotatable=0;points=[[0,0.5],[1,0.5]];portConstraint=eastwest;" vertex="1" parent="1">
          <mxGeometry x="40" y="380" width="80" height="26" as="geometry" />
        </mxCell>
      </root>
    </mxGraphModel>
  </diagram>
</mxfile>
